HIERARCHY
ROOT Hips
{
	OFFSET 0.00000 0.00000 0.00000
	CHANNELS 6 Xposition Yposition Zposition Zrotation Yrotation Xrotation 
	JOINT LHipJoint
	{
		OFFSET 0 0 0
		CHANNELS 3 Zrotation Yrotation Xrotation
		JOINT LeftUpLeg
		{
			OFFSET 2.36090 -1.39315 1.24752
			CHANNELS 3 Zrotation Yrotation Xrotation
			JOINT LeftLeg
			{
				OFFSET 2.06810 -5.68207 0.00000
				CHANNELS 3 Zrotation Yrotation Xrotation
				JOINT LeftFoot
				{
					OFFSET 2.46631 -6.77613 0.00000
					CHANNELS 3 Zrotation Yrotation Xrotation
					JOINT LeftToeBase
					{
						OFFSET 0.26031 -0.71520 1.99545
						CHANNELS 3 Zrotation Yrotation Xrotation
						End Site
						{
							OFFSET 0.00000 -0.00000 1.05957
						}
					}
				}
			}
		}
	}
	JOINT RHipJoint
	{
		OFFSET 0 0 0
		CHANNELS 3 Zrotation Yrotation Xrotation
		JOINT RightUpLeg
		{
			OFFSET -2.25243 -1.39315 1.24752
			CHANNELS 3 Zrotation Yrotation Xrotation
			JOINT RightLeg
			{
				OFFSET -2.17343 -5.97145 0.00000
				CHANNELS 3 Zrotation Yrotation Xrotation
				JOINT RightFoot
				{
					OFFSET -2.52372 -6.93386 0.00000
					CHANNELS 3 Zrotation Yrotation Xrotation
					JOINT RightToeBase
					{
						OFFSET -0.22538 -0.61923 2.11447
						CHANNELS 3 Zrotation Yrotation Xrotation
						End Site
						{
							OFFSET -0.00000 -0.00000 1.10506
						}
					}
				}
			}
		}
	}
	JOINT LowerBack
	{
		OFFSET 0 0 0
		CHANNELS 3 Zrotation Yrotation Xrotation
		JOINT Spine
		{
			OFFSET 0.01594 2.13103 0.08007
			CHANNELS 3 Zrotation Yrotation Xrotation
			JOINT Spine1
			{
				OFFSET 0.01393 2.09723 0.18338
				CHANNELS 3 Zrotation Yrotation Xrotation
				JOINT Neck
				{
					OFFSET 0 0 0
					CHANNELS 3 Zrotation Yrotation Xrotation
					JOINT Neck1
					{
						OFFSET 0.05351 1.38915 0.32494
						CHANNELS 3 Zrotation Yrotation Xrotation
						JOINT Head
						{
							OFFSET 0.00711 1.45992 -0.21666
							CHANNELS 3 Zrotation Yrotation Xrotation
							End Site
							{
								OFFSET -0.00433 1.47702 -0.11056
							}
						}
					}
				}
				JOINT LeftShoulder
				{
					OFFSET 0 0 0
					CHANNELS 3 Zrotation Yrotation Xrotation
					JOINT LeftArm
					{
						OFFSET 2.87198 0.92249 0.11132
						CHANNELS 3 Zrotation Yrotation Xrotation
						JOINT LeftForeArm
						{
							OFFSET 5.52731 -0.00000 0.00000
							CHANNELS 3 Zrotation Yrotation Xrotation
							JOINT LeftHand
							{
								OFFSET 3.11059 -0.00000 0.00000
								CHANNELS 3 Zrotation Yrotation Xrotation
								JOINT LeftFingerBase
								{
									OFFSET 0 0 0
									CHANNELS 3 Zrotation Yrotation Xrotation
									JOINT LeftHandIndex1
									{
										OFFSET 0.41963 -0.00000 0.00000
										CHANNELS 3 Zrotation Yrotation Xrotation
										End Site
										{
											OFFSET 0.33831 -0.00000 0.00000
										}
									}
								}
								JOINT LThumb
								{
									OFFSET 0 0 0
									CHANNELS 3 Zrotation Yrotation Xrotation
									End Site
									{
										OFFSET 0.34348 -0.00000 0.34348
									}
								}
							}
						}
					}
				}
				JOINT RightShoulder
				{
					OFFSET 0 0 0
					CHANNELS 3 Zrotation Yrotation Xrotation
					JOINT RightArm
					{
						OFFSET -2.94710 0.68072 0.32187
						CHANNELS 3 Zrotation Yrotation Xrotation
						JOINT RightForeArm
						{
							OFFSET -5.25396 -0.00000 -0.00000
							CHANNELS 3 Zrotation Yrotation Xrotation
							JOINT RightHand
							{
								OFFSET -3.10567 -0.00000 0.00000
								CHANNELS 3 Zrotation Yrotation Xrotation
								JOINT RightFingerBase
								{
									OFFSET 0 0 0
									CHANNELS 3 Zrotation Yrotation Xrotation
									JOINT RightHandIndex1
									{
										OFFSET -0.49868 -0.00000 0.00000
										CHANNELS 3 Zrotation Yrotation Xrotation
										End Site
										{
											OFFSET -0.40204 -0.00000 0.00000
										}
									}
								}
								JOINT RThumb
								{
									OFFSET 0 0 0
									CHANNELS 3 Zrotation Yrotation Xrotation
									End Site
									{
										OFFSET -0.40818 -0.00000 0.40818
									}
								}
							}
						}
					}
				}
			}
		}
	}
}
MOTION
Frames: 11
Frame Time: .0083333
-4.7126 14.9047 34.7866 0 0 0 0 0 0 -21 0 0 0 0 0 0 0 0 0 0 0 0 0 0 21 0 0 0 0 0 0 0 0 0 0 0 0 0 0 0 0 0 0 0 0 0 0 -16 0 0 21 0 0 11 0 0 0 -8 0 0 0 0 0 0 0 0 0 0 0 0 0 0 0 0 0 0 0 0 8 0 0 0 0 0 0 0 0 0 0 0 0 0 0 0 0 0
-4.7126 14.9047 34.7866 175.4010 -0.9143 -160.3000 0.0000 0.0000 0.0000 -18.2153 -16.5133 -41.2219 4.2464 12.4813 37.4565 0.7093 -5.7183 -15.0063 0.5919 -4.9256 -13.6966 0.0000 0.0000 0.0000 16.1161 26.3575 -18.8384 -7.4259 -15.6803 50.4674 -1.2287 -0.0602 -20.9880 -2.8617 10.4678 -30.5052 -7.2929 -1.2664 -12.0742 -6.4863 -1.4574 -2.8271 -2.9630 -1.1754 3.7563 8.5828 5.3101 -14.3852 3.3570 5.4381 19.2774 0.4056 3.8129 8.5672 0.0000 0.0000 0.0000 -64.7684 19.8173 -3.2504 10.2971 -17.2029 -1.5617 -0.0000 0.0000 -29.9358 27.2560 0.3714 0.1913 -7.1250 0.0000 -0.0000 0.5466 30.3972 -0.1949 0.0000 0.0000 0.0000 86.1006 -13.3219 39.9590 -17.3739 27.3480 -4.2577 0.0000 -0.0000 -6.1917 -14.0300 -17.7684 4.3608 7.1250 -0.0000 -0.0000 13.4406 -47.7945 -0.9428
-4.7468 14.9142 34.7029 175.3180 -0.8047 -160.4810 0.0000 0.0000 0.0000 -18.6082 -16.5947 -40.3200 4.1844 12.4018 37.1686 0.7587 -5.5302 -15.5210 0.5591 -4.7894 -13.3089 0.0000 0.0000 0.0000 15.7968 25.9146 -20.6021 -8.2240 -16.2816 53.3655 -1.0293 1.1576 -18.8253 -2.6648 10.1315 -29.4038 -7.9011 -1.2602 -11.8520 -6.6734 -1.4044 -2.6541 -2.8142 -1.1680 3.8193 8.4755 5.2027 -14.7815 3.5885 5.2127 19.2966 0.4857 3.7246 8.6308 0.0000 0.0000 0.0000 -64.5546 18.7888 -5.3068 9.6687 -16.2197 -1.3810 -0.0000 0.0000 -27.7860 27.2560 0.3714 0.1913 -7.1250 0.0000 -0.0000 0.5466 30.3972 -0.1949 0.0000 0.0000 0.0000 86.3056 -13.2685 39.2002 -17.3974 27.3787 -4.2685 0.0000 -0.0000 -5.9284 -14.0838 -17.7783 4.3805 7.1250 -0.0000 -0.0000 13.3938 -47.8118 -0.9452
-4.7844 14.9034 34.6180 175.2830 -0.6208 -160.6440 0.0000 0.0000 0.0000 -18.9437 -16.7180 -39.5561 4.1594 12.3695 37.0520 0.8200 -5.1850 -16.1508 0.4801 -4.4433 -12.3271 0.0000 0.0000 0.0000 15.5497 25.3576 -22.1492 -8.9964 -16.8054 56.0777 -0.8077 1.3778 -16.5703 -2.7798 10.3298 -30.0515 -8.4075 -1.2222 -11.6212 -6.8626 -1.3321 -2.5222 -2.7205 -1.1510 3.8312 8.3403 5.1077 -15.2959 3.8543 4.9908 19.4079 0.5881 3.6446 8.7466 -0.0000 0.0000 0.0000 -64.3675 17.9394 -6.9874 9.2970 -15.6325 -1.2790 -0.0000 0.0000 -25.5717 25.5152 1.1662 0.5566 -7.1250 0.0000 -0.0000 -0.8434 31.2713 0.2831 -0.0000 0.0000 0.0000 86.5321 -13.2641 38.3672 -17.4299 27.4211 -4.2835 0.0000 -0.0000 -5.6334 -14.2167 -18.1578 4.5143 7.1250 -0.0000 -0.0000 13.3998 -48.2069 -1.0781
-4.8223 14.9132 34.5357 175.3420 -0.5016 -160.6190 0.0000 0.0000 0.0000 -19.0937 -16.9139 -38.9852 4.1225 12.3217 36.8796 0.8635 -4.7806 -16.6031 0.4604 -4.3527 -12.0710 0.0000 0.0000 0.0000 15.2770 24.8930 -24.2165 -9.7675 -17.2770 58.7083 -0.5521 1.4721 -13.6060 -2.2590 9.3860 -27.0103 -8.7810 -1.1533 -11.4928 -6.9529 -1.2543 -2.6175 -2.5902 -1.1249 3.6578 7.9704 5.8474 -15.2304 4.1260 4.4901 19.4214 0.5987 2.8805 8.7351 0.0000 -0.0000 0.0000 -64.3984 17.5354 -6.7813 9.2445 -15.5492 -1.2648 -0.0000 0.0000 -23.3459 26.4597 3.3761 1.6789 -7.1250 0.0000 -0.0000 -0.1272 33.7498 0.0351 0.0000 -0.0000 0.0000 86.5918 -13.6389 37.6964 -17.5710 27.6044 -4.3486 0.0000 -0.0000 -5.8533 -14.1323 -18.0369 4.4577 7.1250 -0.0000 -0.0000 13.4370 -48.0751 -1.0369
-4.8599 14.9161 34.4526 175.3620 -0.3732 -160.6460 0.0000 0.0000 0.0000 -19.3172 -17.0690 -38.3844 4.0964 12.2875 36.7569 0.9119 -4.4442 -17.1013 0.4296 -4.2064 -11.6579 0.0000 0.0000 0.0000 15.0034 24.5225 -26.0566 -10.5305 -17.6976 61.2472 -0.3545 1.2638 -10.8760 -1.8236 8.4886 -24.2082 -9.1951 -1.0998 -11.3541 -7.0699 -1.1795 -2.6094 -2.4709 -1.1023 3.5875 7.8480 5.7228 -15.4472 4.2341 4.2943 19.5160 0.6378 2.7942 8.7974 0.0000 0.0000 0.0000 -64.3667 16.8917 -7.1790 9.0763 -15.2820 -1.2202 -0.0000 0.0000 -21.2142 27.7514 4.6356 2.4349 -7.1250 0.0000 -0.0000 0.9093 35.2135 -0.2186 0.0000 0.0000 0.0000 86.6981 -13.8227 37.0003 -17.6848 27.7517 -4.4015 0.0000 -0.0000 -5.9442 -14.1113 -18.0562 4.4554 7.1250 -0.0000 -0.0000 13.4632 -48.0912 -1.0444
-4.8980 14.9205 34.3692 175.3910 -0.2539 -160.6410 0.0000 0.0000 0.0000 -19.5343 -17.2039 -37.7987 4.0579 12.2371 36.5760 0.9541 -4.1189 -17.5378 0.4055 -4.0881 -11.3248 0.0000 0.0000 0.0000 14.7303 24.2063 -27.9130 -11.2796 -18.0692 63.6862 -0.2070 0.6971 -8.3746 -1.3705 7.4089 -20.9326 -9.5743 -1.0433 -11.2365 -7.1659 -1.1048 -2.6253 -2.3492 -1.0778 3.5025 7.7177 5.5961 -15.6372 4.3044 4.1112 19.6144 0.6660 2.7100 8.8571 0.0000 0.0000 0.0000 -64.3892 16.2936 -7.0568 9.0012 -15.1624 -1.2004 -0.0000 0.0000 -19.3410 25.8510 2.6918 1.3035 -7.1250 0.0000 -0.0000 -0.6062 32.9700 0.1787 0.0000 0.0000 0.0000 86.7715 -14.0332 36.3531 -17.8264 27.9343 -4.4676 0.0000 -0.0000 -6.1522 -14.0662 -18.0833 4.4471 7.1250 -0.0000 -0.0000 13.5145 -48.1117 -1.0555
-4.9356 14.9277 34.2862 175.4130 -0.1699 -160.5980 0.0000 0.0000 0.0000 -19.7542 -17.3164 -37.2566 4.0143 12.1794 36.3696 0.9911 -3.8517 -17.9190 0.3897 -4.0084 -11.1002 0.0000 0.0000 0.0000 14.4500 23.9276 -29.7952 -12.0090 -18.3944 66.0172 -0.1119 -0.1068 -6.3563 -0.9866 6.3222 -17.7222 -9.9386 -0.9968 -11.1329 -7.2415 -1.0444 -2.6539 -2.2167 -1.0587 3.4117 7.5899 5.4578 -15.8647 4.3285 3.9194 19.7426 0.6787 2.6194 8.9351 -0.0000 0.0000 0.0000 -64.4643 15.6938 -6.5209 8.9863 -15.1386 -1.1965 -0.0000 0.0000 -17.7779 25.7011 2.6314 1.2658 -7.1250 0.0000 -0.0000 -0.7264 32.8989 0.2154 -0.0000 0.0000 0.0000 86.8119 -14.2398 35.7700 -17.9928 28.1479 -4.5458 0.0000 -0.0000 -6.4644 -13.9819 -18.1385 4.4324 7.1250 -0.0000 -0.0000 13.6123 -48.1544 -1.0779
-4.9726 14.9360 34.2035 175.4170 -0.1268 -160.5320 0.0000 0.0000 0.0000 -19.9930 -17.3965 -36.7336 3.9621 12.1098 36.1216 1.0228 -3.6574 -18.2403 0.3791 -3.9545 -10.9486 0.0000 0.0000 0.0000 14.1707 23.6612 -31.6554 -12.7082 -18.6743 68.2167 -0.0577 -1.0154 -5.0319 -0.7225 5.4315 -15.1435 -10.2897 -0.9648 -11.0286 -7.3028 -1.0070 -2.6962 -2.0795 -1.0493 3.3062 7.5741 5.3176 -16.1649 4.1902 3.7260 19.9432 0.6211 2.5236 9.0577 -0.0000 -0.0000 0.0000 -64.5737 15.0971 -5.5957 9.0279 -15.2049 -1.2074 -0.0000 0.0000 -16.7019 25.4890 2.2531 1.0737 -7.1250 0.0000 -0.0000 -0.8882 32.4746 0.2724 -0.0000 -0.0000 0.0000 86.8237 -14.4506 35.2763 -18.1795 28.3864 -4.6342 0.0000 -0.0000 -6.8511 -13.8822 -18.2547 4.4268 7.1250 -0.0000 -0.0000 13.7458 -48.2554 -1.1236
-5.0088 14.9460 34.1205 175.4040 -0.1289 -160.4510 0.0000 0.0000 0.0000 -20.2549 -17.4288 -36.2179 3.8997 12.0258 35.8232 1.0500 -3.5488 -18.5060 0.3736 -3.9259 -10.8682 0.0000 0.0000 0.0000 13.9018 23.3899 -33.4864 -13.3713 -18.9121 70.2749 -0.0278 -1.9060 -4.4382 -0.5625 4.8039 -13.3501 -10.6280 -0.9508 -10.9193 -7.3562 -0.9960 -2.7386 -1.9449 -1.0518 3.1985 7.5424 5.1714 -16.4723 4.0508 3.5309 20.1337 0.5646 2.4260 9.1775 -0.0000 -0.0000 0.0000 -64.7032 14.4842 -4.3296 9.1210 -15.3530 -1.2320 -0.0000 0.0000 -16.1602 25.2617 1.6222 0.7653 -7.1250 0.0000 -0.0000 -1.0557 31.7723 0.3417 -0.0000 -0.0000 0.0000 86.8183 -14.6400 34.8901 -18.3820 28.6436 -4.7309 0.0000 -0.0000 -7.2998 -13.7679 -18.4144 4.4260 7.1250 -0.0000 -0.0000 13.9090 -48.3969 -1.1868
-5.0439 14.9570 34.0373 175.3800 -0.1793 -160.3490 0.0000 0.0000 0.0000 -20.5267 -17.4181 -35.7212 3.8284 11.9285 35.4794 1.0723 -3.5322 -18.7120 0.3719 -3.9170 -10.8433 0.0000 0.0000 0.0000 13.6479 23.1077 -35.2933 -13.9899 -19.1110 72.1737 -0.0103 -2.7218 -4.4600 -0.4775 4.4315 -12.2940 -10.9412 -0.9559 -10.8191 -7.4079 -1.0129 -2.7827 -1.8269 -1.0675 3.0950 7.4575 5.0216 -16.6964 3.9633 3.3461 20.2551 0.5316 2.3317 9.2561 -0.0000 -0.0000 0.0000 -64.8372 13.8618 -2.7434 9.2671 -15.5851 -1.2709 -0.0000 0.0000 -16.1660 25.2217 0.9338 0.4398 -7.1250 0.0000 -0.0000 -1.0733 31.0108 0.3670 -0.0000 -0.0000 0.0000 86.8084 -14.8089 34.6234 -18.5917 28.9082 -4.8319 0.0000 -0.0000 -7.7846 -13.6466 -18.5817 4.4239 7.1250 -0.0000 -0.0000 14.0822 -48.5447 -1.2542
